G04 EAGLE Gerber RS-274X export*
G75*
%MOMM*%
%FSLAX34Y34*%
%LPD*%
%IN*%
%IPPOS*%
%AMOC8*
5,1,8,0,0,1.08239X$1,22.5*%
G01*
%ADD10C,0.254000*%


D10*
X11362Y33700D02*
X11476Y31085D01*
X11818Y28491D01*
X12384Y25935D01*
X13171Y23439D01*
X14173Y21021D01*
X15381Y18700D01*
X16787Y16493D01*
X18381Y14416D01*
X20149Y12487D01*
X22078Y10719D01*
X24155Y9125D01*
X26362Y7719D01*
X28683Y6511D01*
X31101Y5509D01*
X33597Y4722D01*
X36153Y4156D01*
X38747Y3814D01*
X41362Y3700D01*
X1481362Y3700D01*
X1483977Y3814D01*
X1486571Y4156D01*
X1489127Y4722D01*
X1491623Y5509D01*
X1494041Y6511D01*
X1496362Y7719D01*
X1498569Y9125D01*
X1500646Y10719D01*
X1502575Y12487D01*
X1504343Y14416D01*
X1505937Y16493D01*
X1507343Y18700D01*
X1508551Y21021D01*
X1509553Y23439D01*
X1510340Y25935D01*
X1510906Y28491D01*
X1511248Y31085D01*
X1511362Y33700D01*
X1511362Y1257800D01*
X1511248Y1260415D01*
X1510906Y1263009D01*
X1510340Y1265565D01*
X1509553Y1268061D01*
X1508551Y1270479D01*
X1507343Y1272800D01*
X1505937Y1275007D01*
X1504343Y1277084D01*
X1502575Y1279013D01*
X1500646Y1280781D01*
X1498569Y1282375D01*
X1496362Y1283781D01*
X1494041Y1284989D01*
X1491623Y1285991D01*
X1489127Y1286778D01*
X1486571Y1287344D01*
X1483977Y1287686D01*
X1481362Y1287800D01*
X41362Y1287800D01*
X38747Y1287686D01*
X36153Y1287344D01*
X33597Y1286778D01*
X31101Y1285991D01*
X28683Y1284989D01*
X26362Y1283781D01*
X24155Y1282375D01*
X22078Y1280781D01*
X20149Y1279013D01*
X18381Y1277084D01*
X16787Y1275007D01*
X15381Y1272800D01*
X14173Y1270479D01*
X13171Y1268061D01*
X12384Y1265565D01*
X11818Y1263009D01*
X11476Y1260415D01*
X11362Y1257800D01*
X11362Y33700D01*
X1466362Y1243164D02*
X1466286Y1242096D01*
X1466133Y1241035D01*
X1465905Y1239988D01*
X1465603Y1238960D01*
X1465229Y1237956D01*
X1464784Y1236981D01*
X1464270Y1236041D01*
X1463691Y1235140D01*
X1463049Y1234282D01*
X1462347Y1233472D01*
X1461590Y1232715D01*
X1460780Y1232013D01*
X1459922Y1231371D01*
X1459021Y1230792D01*
X1458081Y1230278D01*
X1457106Y1229833D01*
X1456102Y1229459D01*
X1455074Y1229157D01*
X1454027Y1228929D01*
X1452966Y1228776D01*
X1451898Y1228700D01*
X1450826Y1228700D01*
X1449758Y1228776D01*
X1448697Y1228929D01*
X1447650Y1229157D01*
X1446622Y1229459D01*
X1445618Y1229833D01*
X1444643Y1230278D01*
X1443703Y1230792D01*
X1442802Y1231371D01*
X1441944Y1232013D01*
X1441134Y1232715D01*
X1440377Y1233472D01*
X1439675Y1234282D01*
X1439033Y1235140D01*
X1438454Y1236041D01*
X1437940Y1236981D01*
X1437495Y1237956D01*
X1437121Y1238960D01*
X1436819Y1239988D01*
X1436591Y1241035D01*
X1436438Y1242096D01*
X1436362Y1243164D01*
X1436362Y1244236D01*
X1436438Y1245304D01*
X1436591Y1246365D01*
X1436819Y1247412D01*
X1437121Y1248440D01*
X1437495Y1249444D01*
X1437940Y1250419D01*
X1438454Y1251359D01*
X1439033Y1252260D01*
X1439675Y1253118D01*
X1440377Y1253928D01*
X1441134Y1254685D01*
X1441944Y1255387D01*
X1442802Y1256029D01*
X1443703Y1256608D01*
X1444643Y1257122D01*
X1445618Y1257567D01*
X1446622Y1257941D01*
X1447650Y1258243D01*
X1448697Y1258471D01*
X1449758Y1258624D01*
X1450826Y1258700D01*
X1451898Y1258700D01*
X1452966Y1258624D01*
X1454027Y1258471D01*
X1455074Y1258243D01*
X1456102Y1257941D01*
X1457106Y1257567D01*
X1458081Y1257122D01*
X1459021Y1256608D01*
X1459922Y1256029D01*
X1460780Y1255387D01*
X1461590Y1254685D01*
X1462347Y1253928D01*
X1463049Y1253118D01*
X1463691Y1252260D01*
X1464270Y1251359D01*
X1464784Y1250419D01*
X1465229Y1249444D01*
X1465603Y1248440D01*
X1465905Y1247412D01*
X1466133Y1246365D01*
X1466286Y1245304D01*
X1466362Y1244236D01*
X1466362Y1243164D01*
X106362Y1243164D02*
X106286Y1242096D01*
X106133Y1241035D01*
X105905Y1239988D01*
X105603Y1238960D01*
X105229Y1237956D01*
X104784Y1236981D01*
X104270Y1236041D01*
X103691Y1235140D01*
X103049Y1234282D01*
X102347Y1233472D01*
X101590Y1232715D01*
X100780Y1232013D01*
X99922Y1231371D01*
X99021Y1230792D01*
X98081Y1230278D01*
X97106Y1229833D01*
X96102Y1229459D01*
X95074Y1229157D01*
X94027Y1228929D01*
X92966Y1228776D01*
X91898Y1228700D01*
X90826Y1228700D01*
X89758Y1228776D01*
X88697Y1228929D01*
X87650Y1229157D01*
X86622Y1229459D01*
X85618Y1229833D01*
X84643Y1230278D01*
X83703Y1230792D01*
X82802Y1231371D01*
X81944Y1232013D01*
X81134Y1232715D01*
X80377Y1233472D01*
X79675Y1234282D01*
X79033Y1235140D01*
X78454Y1236041D01*
X77940Y1236981D01*
X77495Y1237956D01*
X77121Y1238960D01*
X76819Y1239988D01*
X76591Y1241035D01*
X76438Y1242096D01*
X76362Y1243164D01*
X76362Y1244236D01*
X76438Y1245304D01*
X76591Y1246365D01*
X76819Y1247412D01*
X77121Y1248440D01*
X77495Y1249444D01*
X77940Y1250419D01*
X78454Y1251359D01*
X79033Y1252260D01*
X79675Y1253118D01*
X80377Y1253928D01*
X81134Y1254685D01*
X81944Y1255387D01*
X82802Y1256029D01*
X83703Y1256608D01*
X84643Y1257122D01*
X85618Y1257567D01*
X86622Y1257941D01*
X87650Y1258243D01*
X88697Y1258471D01*
X89758Y1258624D01*
X90826Y1258700D01*
X91898Y1258700D01*
X92966Y1258624D01*
X94027Y1258471D01*
X95074Y1258243D01*
X96102Y1257941D01*
X97106Y1257567D01*
X98081Y1257122D01*
X99021Y1256608D01*
X99922Y1256029D01*
X100780Y1255387D01*
X101590Y1254685D01*
X102347Y1253928D01*
X103049Y1253118D01*
X103691Y1252260D01*
X104270Y1251359D01*
X104784Y1250419D01*
X105229Y1249444D01*
X105603Y1248440D01*
X105905Y1247412D01*
X106133Y1246365D01*
X106286Y1245304D01*
X106362Y1244236D01*
X106362Y1243164D01*
X66362Y43164D02*
X66286Y42096D01*
X66133Y41035D01*
X65905Y39988D01*
X65603Y38960D01*
X65229Y37956D01*
X64784Y36981D01*
X64270Y36041D01*
X63691Y35140D01*
X63049Y34282D01*
X62347Y33472D01*
X61590Y32715D01*
X60780Y32013D01*
X59922Y31371D01*
X59021Y30792D01*
X58081Y30278D01*
X57106Y29833D01*
X56102Y29459D01*
X55074Y29157D01*
X54027Y28929D01*
X52966Y28776D01*
X51898Y28700D01*
X50826Y28700D01*
X49758Y28776D01*
X48697Y28929D01*
X47650Y29157D01*
X46622Y29459D01*
X45618Y29833D01*
X44643Y30278D01*
X43703Y30792D01*
X42802Y31371D01*
X41944Y32013D01*
X41134Y32715D01*
X40377Y33472D01*
X39675Y34282D01*
X39033Y35140D01*
X38454Y36041D01*
X37940Y36981D01*
X37495Y37956D01*
X37121Y38960D01*
X36819Y39988D01*
X36591Y41035D01*
X36438Y42096D01*
X36362Y43164D01*
X36362Y44236D01*
X36438Y45304D01*
X36591Y46365D01*
X36819Y47412D01*
X37121Y48440D01*
X37495Y49444D01*
X37940Y50419D01*
X38454Y51359D01*
X39033Y52260D01*
X39675Y53118D01*
X40377Y53928D01*
X41134Y54685D01*
X41944Y55387D01*
X42802Y56029D01*
X43703Y56608D01*
X44643Y57122D01*
X45618Y57567D01*
X46622Y57941D01*
X47650Y58243D01*
X48697Y58471D01*
X49758Y58624D01*
X50826Y58700D01*
X51898Y58700D01*
X52966Y58624D01*
X54027Y58471D01*
X55074Y58243D01*
X56102Y57941D01*
X57106Y57567D01*
X58081Y57122D01*
X59021Y56608D01*
X59922Y56029D01*
X60780Y55387D01*
X61590Y54685D01*
X62347Y53928D01*
X63049Y53118D01*
X63691Y52260D01*
X64270Y51359D01*
X64784Y50419D01*
X65229Y49444D01*
X65603Y48440D01*
X65905Y47412D01*
X66133Y46365D01*
X66286Y45304D01*
X66362Y44236D01*
X66362Y43164D01*
X1466362Y43164D02*
X1466286Y42096D01*
X1466133Y41035D01*
X1465905Y39988D01*
X1465603Y38960D01*
X1465229Y37956D01*
X1464784Y36981D01*
X1464270Y36041D01*
X1463691Y35140D01*
X1463049Y34282D01*
X1462347Y33472D01*
X1461590Y32715D01*
X1460780Y32013D01*
X1459922Y31371D01*
X1459021Y30792D01*
X1458081Y30278D01*
X1457106Y29833D01*
X1456102Y29459D01*
X1455074Y29157D01*
X1454027Y28929D01*
X1452966Y28776D01*
X1451898Y28700D01*
X1450826Y28700D01*
X1449758Y28776D01*
X1448697Y28929D01*
X1447650Y29157D01*
X1446622Y29459D01*
X1445618Y29833D01*
X1444643Y30278D01*
X1443703Y30792D01*
X1442802Y31371D01*
X1441944Y32013D01*
X1441134Y32715D01*
X1440377Y33472D01*
X1439675Y34282D01*
X1439033Y35140D01*
X1438454Y36041D01*
X1437940Y36981D01*
X1437495Y37956D01*
X1437121Y38960D01*
X1436819Y39988D01*
X1436591Y41035D01*
X1436438Y42096D01*
X1436362Y43164D01*
X1436362Y44236D01*
X1436438Y45304D01*
X1436591Y46365D01*
X1436819Y47412D01*
X1437121Y48440D01*
X1437495Y49444D01*
X1437940Y50419D01*
X1438454Y51359D01*
X1439033Y52260D01*
X1439675Y53118D01*
X1440377Y53928D01*
X1441134Y54685D01*
X1441944Y55387D01*
X1442802Y56029D01*
X1443703Y56608D01*
X1444643Y57122D01*
X1445618Y57567D01*
X1446622Y57941D01*
X1447650Y58243D01*
X1448697Y58471D01*
X1449758Y58624D01*
X1450826Y58700D01*
X1451898Y58700D01*
X1452966Y58624D01*
X1454027Y58471D01*
X1455074Y58243D01*
X1456102Y57941D01*
X1457106Y57567D01*
X1458081Y57122D01*
X1459021Y56608D01*
X1459922Y56029D01*
X1460780Y55387D01*
X1461590Y54685D01*
X1462347Y53928D01*
X1463049Y53118D01*
X1463691Y52260D01*
X1464270Y51359D01*
X1464784Y50419D01*
X1465229Y49444D01*
X1465603Y48440D01*
X1465905Y47412D01*
X1466133Y46365D01*
X1466286Y45304D01*
X1466362Y44236D01*
X1466362Y43164D01*
M02*
