M48
;GenerationSoftware,Autodesk,EAGLE,9.6.2*%
;CreationDate,2022-08-29T16:36:19Z*%
FMAT,2
ICI,OFF
METRIC,TZ,000.000
T11C0.350
T10C0.813
T9C0.914
T8C1.000
T7C1.016
T6C1.100
T5C1.118
T4C1.700
T3C2.997
T2C3.200
T1C3.302
%
G90
M71
T1
X108966Y-134303
T2
X64770Y-134395
T3
X68532Y-137573
X64795Y-141716
T4
X80290Y-25917
X132545Y-45857
X132545Y-49817
X132545Y-53777
X65020Y-25917
X65020Y-29877
X65020Y-33838
X116625Y-26057
X65020Y-37798
X65020Y-41758
X65020Y-49677
X65020Y-53637
X65020Y-45717
X116625Y-53777
X116625Y-49817
X116625Y-45857
X116625Y-41898
X116625Y-37938
X116625Y-33978
X80290Y-29877
X80290Y-33838
X80290Y-37798
X80290Y-41758
X80290Y-45717
X80290Y-49677
X80290Y-53637
X132545Y-26057
X116625Y-30017
X132545Y-30017
X132545Y-33978
X132545Y-37938
X132545Y-41898
T5
X83820Y-121602
X124460Y-134303
X124460Y-124142
X93980Y-121602
T6
X117970Y-119662
X117950Y-138113
X77460Y-138113
X77460Y-119662
T7
X82550Y-144463
X85090Y-144463
X116700Y-112954
X106540Y-112954
X109080Y-112446
X100330Y-144463
X104000Y-112446
X97790Y-144463
X111620Y-112954
X114160Y-112446
X93980Y-136843
X93980Y-131763
X93980Y-134303
T8
X58049Y-111877
X60589Y-111877
X63129Y-111877
X65669Y-111877
X68209Y-111877
X70749Y-111877
X73289Y-111877
X75829Y-111877
X78369Y-111877
X80909Y-111877
X83449Y-111877
X85989Y-111877
X50429Y-86473
X52969Y-86473
X55509Y-86473
X58049Y-86473
X60589Y-86473
X63129Y-86473
X65669Y-86473
X68209Y-86473
X70749Y-86473
X73289Y-86473
X75829Y-86473
X50429Y-111877
X80909Y-86473
X83449Y-86473
X85989Y-86473
X52969Y-111877
X55509Y-111877
X78369Y-86473
T9
X97790Y-53022
X100330Y-53022
X102870Y-53022
X97780Y-60642
X100320Y-60642
X102860Y-60642
T10
X74530Y-77413
X77070Y-77413
X79610Y-77413
X82150Y-77413
X84690Y-77413
X87230Y-77413
X89770Y-77413
X94850Y-77413
X145415Y-80010
X137795Y-80010
X55245Y-80010
X62865Y-80010
X114300Y-77153
X85090Y-129984
X85090Y-133541
X105410Y-121348
X105410Y-119316
X134620Y-69533
X132080Y-69533
X129540Y-69533
X127000Y-69533
X124460Y-69533
X121920Y-69533
X119380Y-69533
X116840Y-69533
X114300Y-69533
X111760Y-69533
X109220Y-69533
X106680Y-69533
X106680Y-77153
X109220Y-77153
X111760Y-77153
X92310Y-77413
X116840Y-77153
X119380Y-77153
X121920Y-77153
X124460Y-77153
X127000Y-77153
X129540Y-77153
X132080Y-77153
X134620Y-77153
X94850Y-69793
X92310Y-69793
X89770Y-69793
X87230Y-69793
X84690Y-69793
X82150Y-69793
X79610Y-69793
X77070Y-69793
X74530Y-69793
X71990Y-69793
X69450Y-69793
X66910Y-69793
X66910Y-77413
X69450Y-77413
X71990Y-77413
T11
X94297Y-60642
X134620Y-63500
X98425Y-63182
X96202Y-82233
X96142Y-85481
X97790Y-56197
X93513Y-89022
X98425Y-86043
X73660Y-72073
X82550Y-75248
X81756Y-79534
X84773Y-72073
X129743Y-114049
X71755Y-115024
X100012Y-58420
X86360Y-60325
X82233Y-60325
X80963Y-72073
X77153Y-72073
X75565Y-34608
X92075Y-74613
X86043Y-74613
X66993Y-59055
X91684Y-93208
X91745Y-87234
X87313Y-26670
X74930Y-75248
X78423Y-75248
X74613Y-54292
X73660Y-61912
X76835Y-61912
X84455Y-66358
X73025Y-65723
X61595Y-63817
X71755Y-65723
X87630Y-63182
X71755Y-63182
X71120Y-64452
X79375Y-64452
X68580Y-66993
X81915Y-67628
X69215Y-51752
X65405Y-72073
X92310Y-71838
X129857Y-74295
X135890Y-74295
X128270Y-74295
X127635Y-30162
X124460Y-34608
X124460Y-57467
X118110Y-57467
X117792Y-73978
X112077Y-73978
X135573Y-73025
X127000Y-73343
X126365Y-46355
X120332Y-73025
X120967Y-67310
X124777Y-66993
X125412Y-50482
X114617Y-73025
X132398Y-56197
X115570Y-56515
X115252Y-74930
X109537Y-74930
X113347Y-67310
X116840Y-67310
X111760Y-35560
X129540Y-65087
X81439Y-93980
X122555Y-65087
X122237Y-38100
X121285Y-46355
X109220Y-50800
X117157Y-66040
X131763Y-66040
X100012Y-69533
X137795Y-60960
X85989Y-99520
X88900Y-80010
X97472Y-95567
X63659Y-95567
X71914Y-93980
X72073Y-90964
X91501Y-80223
X134303Y-71755
X136208Y-75565
X127000Y-71755
X130492Y-72073
X116840Y-72073
X94932Y-73660
X84773Y-74295
X91122Y-75883
X92710Y-73343
X66040Y-67151
X70803Y-68580
X65881Y-63500
X66358Y-56991
X80328Y-56832
X95054Y-80363
X87313Y-72073
M30