G04 EAGLE Gerber RS-274X export*
G75*
%MOMM*%
%FSLAX34Y34*%
%LPD*%
%IN*%
%IPPOS*%
%AMOC8*
5,1,8,0,0,1.08239X$1,22.5*%
G01*
%ADD10C,0.254000*%


D10*
X482600Y-1452725D02*
X482714Y-1455340D01*
X483056Y-1457934D01*
X483622Y-1460490D01*
X484409Y-1462986D01*
X485411Y-1465404D01*
X486619Y-1467725D01*
X488025Y-1469932D01*
X489619Y-1472009D01*
X491387Y-1473938D01*
X493316Y-1475706D01*
X495393Y-1477300D01*
X497600Y-1478706D01*
X499921Y-1479914D01*
X502339Y-1480916D01*
X504835Y-1481703D01*
X507391Y-1482269D01*
X509985Y-1482611D01*
X512600Y-1482725D01*
X1452600Y-1482725D01*
X1455215Y-1482611D01*
X1457809Y-1482269D01*
X1460365Y-1481703D01*
X1462861Y-1480916D01*
X1465279Y-1479914D01*
X1467600Y-1478706D01*
X1469807Y-1477300D01*
X1471884Y-1475706D01*
X1473813Y-1473938D01*
X1475581Y-1472009D01*
X1477175Y-1469932D01*
X1478581Y-1467725D01*
X1479789Y-1465404D01*
X1480791Y-1462986D01*
X1481578Y-1460490D01*
X1482144Y-1457934D01*
X1482486Y-1455340D01*
X1482600Y-1452725D01*
X1482600Y-242725D01*
X1482486Y-240110D01*
X1482144Y-237516D01*
X1481578Y-234960D01*
X1480791Y-232464D01*
X1479789Y-230046D01*
X1478581Y-227725D01*
X1477175Y-225518D01*
X1475581Y-223441D01*
X1473813Y-221512D01*
X1471884Y-219744D01*
X1469807Y-218150D01*
X1467600Y-216744D01*
X1465279Y-215536D01*
X1462861Y-214534D01*
X1460365Y-213747D01*
X1457809Y-213181D01*
X1455215Y-212839D01*
X1452600Y-212725D01*
X512600Y-212725D01*
X509985Y-212839D01*
X507391Y-213181D01*
X504835Y-213747D01*
X502339Y-214534D01*
X499921Y-215536D01*
X497600Y-216744D01*
X495393Y-218150D01*
X493316Y-219744D01*
X491387Y-221512D01*
X489619Y-223441D01*
X488025Y-225518D01*
X486619Y-227725D01*
X485411Y-230046D01*
X484409Y-232464D01*
X483622Y-234960D01*
X483056Y-237516D01*
X482714Y-240110D01*
X482600Y-242725D01*
X482600Y-1452725D01*
X537600Y-253261D02*
X537600Y-252189D01*
X537524Y-251121D01*
X537371Y-250060D01*
X537143Y-249013D01*
X536841Y-247985D01*
X536467Y-246981D01*
X536022Y-246006D01*
X535508Y-245066D01*
X534929Y-244165D01*
X534287Y-243307D01*
X533585Y-242497D01*
X532828Y-241740D01*
X532018Y-241038D01*
X531160Y-240396D01*
X530259Y-239817D01*
X529319Y-239303D01*
X528344Y-238858D01*
X527340Y-238484D01*
X526312Y-238182D01*
X525265Y-237954D01*
X524204Y-237801D01*
X523136Y-237725D01*
X522064Y-237725D01*
X520996Y-237801D01*
X519935Y-237954D01*
X518888Y-238182D01*
X517860Y-238484D01*
X516856Y-238858D01*
X515881Y-239303D01*
X514941Y-239817D01*
X514040Y-240396D01*
X513182Y-241038D01*
X512372Y-241740D01*
X511615Y-242497D01*
X510913Y-243307D01*
X510271Y-244165D01*
X509692Y-245066D01*
X509178Y-246006D01*
X508733Y-246981D01*
X508359Y-247985D01*
X508057Y-249013D01*
X507829Y-250060D01*
X507676Y-251121D01*
X507600Y-252189D01*
X507600Y-253261D01*
X507676Y-254329D01*
X507829Y-255390D01*
X508057Y-256437D01*
X508359Y-257465D01*
X508733Y-258469D01*
X509178Y-259444D01*
X509692Y-260384D01*
X510271Y-261285D01*
X510913Y-262143D01*
X511615Y-262953D01*
X512372Y-263710D01*
X513182Y-264412D01*
X514040Y-265054D01*
X514941Y-265633D01*
X515881Y-266147D01*
X516856Y-266592D01*
X517860Y-266966D01*
X518888Y-267268D01*
X519935Y-267496D01*
X520996Y-267649D01*
X522064Y-267725D01*
X523136Y-267725D01*
X524204Y-267649D01*
X525265Y-267496D01*
X526312Y-267268D01*
X527340Y-266966D01*
X528344Y-266592D01*
X529319Y-266147D01*
X530259Y-265633D01*
X531160Y-265054D01*
X532018Y-264412D01*
X532828Y-263710D01*
X533585Y-262953D01*
X534287Y-262143D01*
X534929Y-261285D01*
X535508Y-260384D01*
X536022Y-259444D01*
X536467Y-258469D01*
X536841Y-257465D01*
X537143Y-256437D01*
X537371Y-255390D01*
X537524Y-254329D01*
X537600Y-253261D01*
X1457600Y-253261D02*
X1457600Y-252189D01*
X1457524Y-251121D01*
X1457371Y-250060D01*
X1457143Y-249013D01*
X1456841Y-247985D01*
X1456467Y-246981D01*
X1456022Y-246006D01*
X1455508Y-245066D01*
X1454929Y-244165D01*
X1454287Y-243307D01*
X1453585Y-242497D01*
X1452828Y-241740D01*
X1452018Y-241038D01*
X1451160Y-240396D01*
X1450259Y-239817D01*
X1449319Y-239303D01*
X1448344Y-238858D01*
X1447340Y-238484D01*
X1446312Y-238182D01*
X1445265Y-237954D01*
X1444204Y-237801D01*
X1443136Y-237725D01*
X1442064Y-237725D01*
X1440996Y-237801D01*
X1439935Y-237954D01*
X1438888Y-238182D01*
X1437860Y-238484D01*
X1436856Y-238858D01*
X1435881Y-239303D01*
X1434941Y-239817D01*
X1434040Y-240396D01*
X1433182Y-241038D01*
X1432372Y-241740D01*
X1431615Y-242497D01*
X1430913Y-243307D01*
X1430271Y-244165D01*
X1429692Y-245066D01*
X1429178Y-246006D01*
X1428733Y-246981D01*
X1428359Y-247985D01*
X1428057Y-249013D01*
X1427829Y-250060D01*
X1427676Y-251121D01*
X1427600Y-252189D01*
X1427600Y-253261D01*
X1427676Y-254329D01*
X1427829Y-255390D01*
X1428057Y-256437D01*
X1428359Y-257465D01*
X1428733Y-258469D01*
X1429178Y-259444D01*
X1429692Y-260384D01*
X1430271Y-261285D01*
X1430913Y-262143D01*
X1431615Y-262953D01*
X1432372Y-263710D01*
X1433182Y-264412D01*
X1434040Y-265054D01*
X1434941Y-265633D01*
X1435881Y-266147D01*
X1436856Y-266592D01*
X1437860Y-266966D01*
X1438888Y-267268D01*
X1439935Y-267496D01*
X1440996Y-267649D01*
X1442064Y-267725D01*
X1443136Y-267725D01*
X1444204Y-267649D01*
X1445265Y-267496D01*
X1446312Y-267268D01*
X1447340Y-266966D01*
X1448344Y-266592D01*
X1449319Y-266147D01*
X1450259Y-265633D01*
X1451160Y-265054D01*
X1452018Y-264412D01*
X1452828Y-263710D01*
X1453585Y-262953D01*
X1454287Y-262143D01*
X1454929Y-261285D01*
X1455508Y-260384D01*
X1456022Y-259444D01*
X1456467Y-258469D01*
X1456841Y-257465D01*
X1457143Y-256437D01*
X1457371Y-255390D01*
X1457524Y-254329D01*
X1457600Y-253261D01*
X1457600Y-1443261D02*
X1457600Y-1442189D01*
X1457524Y-1441121D01*
X1457371Y-1440060D01*
X1457143Y-1439013D01*
X1456841Y-1437985D01*
X1456467Y-1436981D01*
X1456022Y-1436006D01*
X1455508Y-1435066D01*
X1454929Y-1434165D01*
X1454287Y-1433307D01*
X1453585Y-1432497D01*
X1452828Y-1431740D01*
X1452018Y-1431038D01*
X1451160Y-1430396D01*
X1450259Y-1429817D01*
X1449319Y-1429303D01*
X1448344Y-1428858D01*
X1447340Y-1428484D01*
X1446312Y-1428182D01*
X1445265Y-1427954D01*
X1444204Y-1427801D01*
X1443136Y-1427725D01*
X1442064Y-1427725D01*
X1440996Y-1427801D01*
X1439935Y-1427954D01*
X1438888Y-1428182D01*
X1437860Y-1428484D01*
X1436856Y-1428858D01*
X1435881Y-1429303D01*
X1434941Y-1429817D01*
X1434040Y-1430396D01*
X1433182Y-1431038D01*
X1432372Y-1431740D01*
X1431615Y-1432497D01*
X1430913Y-1433307D01*
X1430271Y-1434165D01*
X1429692Y-1435066D01*
X1429178Y-1436006D01*
X1428733Y-1436981D01*
X1428359Y-1437985D01*
X1428057Y-1439013D01*
X1427829Y-1440060D01*
X1427676Y-1441121D01*
X1427600Y-1442189D01*
X1427600Y-1443261D01*
X1427676Y-1444329D01*
X1427829Y-1445390D01*
X1428057Y-1446437D01*
X1428359Y-1447465D01*
X1428733Y-1448469D01*
X1429178Y-1449444D01*
X1429692Y-1450384D01*
X1430271Y-1451285D01*
X1430913Y-1452143D01*
X1431615Y-1452953D01*
X1432372Y-1453710D01*
X1433182Y-1454412D01*
X1434040Y-1455054D01*
X1434941Y-1455633D01*
X1435881Y-1456147D01*
X1436856Y-1456592D01*
X1437860Y-1456966D01*
X1438888Y-1457268D01*
X1439935Y-1457496D01*
X1440996Y-1457649D01*
X1442064Y-1457725D01*
X1443136Y-1457725D01*
X1444204Y-1457649D01*
X1445265Y-1457496D01*
X1446312Y-1457268D01*
X1447340Y-1456966D01*
X1448344Y-1456592D01*
X1449319Y-1456147D01*
X1450259Y-1455633D01*
X1451160Y-1455054D01*
X1452018Y-1454412D01*
X1452828Y-1453710D01*
X1453585Y-1452953D01*
X1454287Y-1452143D01*
X1454929Y-1451285D01*
X1455508Y-1450384D01*
X1456022Y-1449444D01*
X1456467Y-1448469D01*
X1456841Y-1447465D01*
X1457143Y-1446437D01*
X1457371Y-1445390D01*
X1457524Y-1444329D01*
X1457600Y-1443261D01*
X537600Y-1443261D02*
X537600Y-1442189D01*
X537524Y-1441121D01*
X537371Y-1440060D01*
X537143Y-1439013D01*
X536841Y-1437985D01*
X536467Y-1436981D01*
X536022Y-1436006D01*
X535508Y-1435066D01*
X534929Y-1434165D01*
X534287Y-1433307D01*
X533585Y-1432497D01*
X532828Y-1431740D01*
X532018Y-1431038D01*
X531160Y-1430396D01*
X530259Y-1429817D01*
X529319Y-1429303D01*
X528344Y-1428858D01*
X527340Y-1428484D01*
X526312Y-1428182D01*
X525265Y-1427954D01*
X524204Y-1427801D01*
X523136Y-1427725D01*
X522064Y-1427725D01*
X520996Y-1427801D01*
X519935Y-1427954D01*
X518888Y-1428182D01*
X517860Y-1428484D01*
X516856Y-1428858D01*
X515881Y-1429303D01*
X514941Y-1429817D01*
X514040Y-1430396D01*
X513182Y-1431038D01*
X512372Y-1431740D01*
X511615Y-1432497D01*
X510913Y-1433307D01*
X510271Y-1434165D01*
X509692Y-1435066D01*
X509178Y-1436006D01*
X508733Y-1436981D01*
X508359Y-1437985D01*
X508057Y-1439013D01*
X507829Y-1440060D01*
X507676Y-1441121D01*
X507600Y-1442189D01*
X507600Y-1443261D01*
X507676Y-1444329D01*
X507829Y-1445390D01*
X508057Y-1446437D01*
X508359Y-1447465D01*
X508733Y-1448469D01*
X509178Y-1449444D01*
X509692Y-1450384D01*
X510271Y-1451285D01*
X510913Y-1452143D01*
X511615Y-1452953D01*
X512372Y-1453710D01*
X513182Y-1454412D01*
X514040Y-1455054D01*
X514941Y-1455633D01*
X515881Y-1456147D01*
X516856Y-1456592D01*
X517860Y-1456966D01*
X518888Y-1457268D01*
X519935Y-1457496D01*
X520996Y-1457649D01*
X522064Y-1457725D01*
X523136Y-1457725D01*
X524204Y-1457649D01*
X525265Y-1457496D01*
X526312Y-1457268D01*
X527340Y-1456966D01*
X528344Y-1456592D01*
X529319Y-1456147D01*
X530259Y-1455633D01*
X531160Y-1455054D01*
X532018Y-1454412D01*
X532828Y-1453710D01*
X533585Y-1452953D01*
X534287Y-1452143D01*
X534929Y-1451285D01*
X535508Y-1450384D01*
X536022Y-1449444D01*
X536467Y-1448469D01*
X536841Y-1447465D01*
X537143Y-1446437D01*
X537371Y-1445390D01*
X537524Y-1444329D01*
X537600Y-1443261D01*
X1089120Y-1326515D02*
X1088041Y-1326586D01*
X1086969Y-1326727D01*
X1085909Y-1326938D01*
X1084865Y-1327217D01*
X1083841Y-1327565D01*
X1082843Y-1327979D01*
X1081873Y-1328457D01*
X1080937Y-1328997D01*
X1080038Y-1329598D01*
X1079181Y-1330256D01*
X1078368Y-1330969D01*
X1077604Y-1331733D01*
X1076891Y-1332546D01*
X1076233Y-1333403D01*
X1075632Y-1334302D01*
X1075092Y-1335238D01*
X1074614Y-1336208D01*
X1074200Y-1337206D01*
X1073852Y-1338230D01*
X1073573Y-1339274D01*
X1073362Y-1340334D01*
X1073221Y-1341406D01*
X1073150Y-1342485D01*
X1073150Y-1343565D01*
X1073221Y-1344644D01*
X1073362Y-1345716D01*
X1073573Y-1346776D01*
X1073852Y-1347820D01*
X1074200Y-1348844D01*
X1074614Y-1349842D01*
X1075092Y-1350812D01*
X1075632Y-1351748D01*
X1076233Y-1352647D01*
X1076891Y-1353504D01*
X1077604Y-1354317D01*
X1078368Y-1355082D01*
X1079181Y-1355794D01*
X1080038Y-1356452D01*
X1080937Y-1357053D01*
X1081873Y-1357593D01*
X1082843Y-1358071D01*
X1083841Y-1358485D01*
X1084865Y-1358833D01*
X1085909Y-1359112D01*
X1086969Y-1359323D01*
X1088041Y-1359464D01*
X1089120Y-1359535D01*
X1090200Y-1359535D01*
X1091279Y-1359464D01*
X1092351Y-1359323D01*
X1093411Y-1359112D01*
X1094455Y-1358833D01*
X1095479Y-1358485D01*
X1096477Y-1358071D01*
X1097447Y-1357593D01*
X1098383Y-1357053D01*
X1099282Y-1356452D01*
X1100139Y-1355794D01*
X1100952Y-1355082D01*
X1101717Y-1354317D01*
X1102429Y-1353504D01*
X1103087Y-1352647D01*
X1103688Y-1351748D01*
X1104228Y-1350812D01*
X1104706Y-1349842D01*
X1105120Y-1348844D01*
X1105468Y-1347820D01*
X1105747Y-1346776D01*
X1105958Y-1345716D01*
X1106099Y-1344644D01*
X1106170Y-1343565D01*
X1106170Y-1342485D01*
X1106099Y-1341406D01*
X1105958Y-1340334D01*
X1105747Y-1339274D01*
X1105468Y-1338230D01*
X1105120Y-1337206D01*
X1104706Y-1336208D01*
X1104228Y-1335238D01*
X1103688Y-1334302D01*
X1103087Y-1333403D01*
X1102429Y-1332546D01*
X1101717Y-1331733D01*
X1100952Y-1330969D01*
X1100139Y-1330256D01*
X1099282Y-1329598D01*
X1098383Y-1328997D01*
X1097447Y-1328457D01*
X1096477Y-1327979D01*
X1095479Y-1327565D01*
X1094455Y-1327217D01*
X1093411Y-1326938D01*
X1092351Y-1326727D01*
X1091279Y-1326586D01*
X1090200Y-1326515D01*
X1089120Y-1326515D01*
M02*
