M48
;GenerationSoftware,Autodesk,EAGLE,9.6.2*%
;CreationDate,2022-08-29T16:24:37Z*%
FMAT,2
ICI,OFF
METRIC,TZ,000.000
T7C0.350
T6C0.450
T5C0.813
T4C0.914
T3C1.016
T2C1.700
T1C3.000
%
G90
M71
T1
X9136Y124370
X5136Y4370
X145136Y4370
X145136Y124370
T2
X39386Y122550
X60266Y14340
X56306Y14340
X52346Y14340
X48386Y14340
X44426Y14340
X36586Y14340
X32626Y14340
X28666Y14340
X24706Y14340
X20746Y14340
X16786Y14340
X12826Y14340
X8866Y14340
X36586Y28310
X32626Y28310
X24706Y28310
X20746Y28310
X16786Y28310
X12826Y28310
X8866Y28310
X36586Y42280
X32626Y42280
X28666Y42280
X24706Y42280
X20746Y42280
X16786Y42280
X12826Y42280
X8866Y42280
X36586Y56250
X32626Y56250
X28666Y56250
X24706Y56250
X20746Y56250
X16786Y56250
X12826Y56250
X8866Y56250
X79386Y122550
X75426Y122550
X110246Y56250
X106286Y56250
X102326Y56250
X28666Y28310
X98366Y56250
X94406Y56250
X90446Y56250
X86486Y56250
X82526Y56250
X110246Y42280
X106286Y42280
X102326Y42280
X98366Y42280
X94406Y42280
X90446Y42280
X86486Y42280
X82526Y42280
X110246Y28310
X106286Y28310
X102326Y28310
X98366Y28310
X94406Y28310
X90446Y28310
X86486Y28310
X82526Y28310
X110246Y14340
X106286Y14340
X133926Y42280
X129966Y42280
X126006Y42280
X102326Y14340
X98366Y14340
X94406Y14340
X35426Y122550
X122046Y56250
X119386Y122550
X90446Y14340
X86486Y14340
X82526Y14340
X122046Y42280
X118086Y42280
X145806Y14340
X141846Y14340
X137886Y14340
X133926Y14340
X145806Y56250
X141846Y56250
X137886Y56250
X129966Y14340
X126006Y14340
X122046Y14340
X133926Y56250
X115426Y122550
X111466Y122550
X118086Y14340
X145806Y28310
X141846Y28310
X31466Y122550
X129966Y56250
X126006Y56250
X118086Y56250
X27506Y122550
X23546Y122550
X137886Y28310
X133926Y28310
X129966Y28310
X107506Y122550
X103546Y122550
X51266Y122550
X126006Y28310
X122046Y28310
X118086Y28310
X47306Y122550
X131266Y122550
X127306Y122550
X145806Y42280
X141846Y42280
X137886Y42280
X123346Y122550
X43346Y122550
X64226Y14340
X68186Y14340
X72146Y14340
X44426Y28310
X48386Y28310
X52346Y28310
X56306Y28310
X60266Y28310
X64226Y28310
X68186Y28310
X72146Y28310
X44426Y42280
X48386Y42280
X52346Y42280
X56306Y42280
X60266Y42280
X64226Y42280
X68186Y42280
X72146Y42280
X44426Y56250
X48386Y56250
X52346Y56250
X56306Y56250
X60266Y56250
X64226Y56250
X68186Y56250
X72146Y56250
T3
X50666Y71490
X48126Y71490
X45586Y71490
X121786Y71490
X116706Y71490
X68446Y71490
X65906Y71490
X63366Y71490
X139566Y71490
X137026Y71490
X134486Y71490
X86226Y96890
X83686Y96890
X81146Y96890
X32886Y96890
X30346Y96890
X27806Y96890
X104006Y96890
X101466Y96890
X98926Y96890
X119246Y71490
X63366Y96890
X50666Y96890
X48126Y96890
X45586Y96890
X121786Y96890
X119246Y96890
X116706Y96890
X68446Y96890
X65906Y96890
X139566Y96890
X137026Y96890
X134486Y96890
X15106Y71490
X12566Y71490
X10026Y71490
X15106Y96890
X12566Y96890
X10026Y96890
X86226Y71490
X83686Y71490
X81146Y71490
X32886Y71490
X30346Y71490
X27806Y71490
X104006Y71490
X101466Y71490
X98926Y71490
T4
X126866Y95620
X126866Y110860
X55746Y95620
X55746Y110860
X55746Y85460
X109086Y85460
X144646Y70220
X37966Y70220
X37966Y85460
X91306Y70220
X91306Y85460
X20186Y95620
X20186Y110860
X20186Y70220
X144646Y95620
X20186Y85460
X109086Y70220
X73526Y110860
X144646Y85460
X73526Y70220
X73526Y85460
X126866Y70220
X126866Y85460
X55746Y70220
X91306Y110860
X91306Y95620
X37966Y110860
X37966Y95620
X109086Y110860
X109086Y95620
X144646Y110860
X73526Y95620
T5
X29076Y105780
X133216Y80380
X134486Y82285
X135756Y80380
X81146Y107685
X82416Y105780
X62096Y80380
X63366Y82285
X64636Y80380
X115436Y80380
X116706Y82285
X117976Y80380
X44316Y80380
X45586Y82285
X46856Y80380
X97656Y80380
X98926Y82285
X100196Y80380
X26536Y80380
X27806Y82285
X29076Y80380
X79876Y80380
X81146Y82285
X82416Y80380
X8756Y80380
X10026Y82285
X11296Y80380
X133216Y105780
X134486Y107685
X135756Y105780
X62096Y105780
X63366Y107685
X64636Y105780
X115436Y105780
X116706Y107685
X117976Y105780
X8756Y105780
X10026Y107685
X11296Y105780
X79876Y105780
X44316Y105780
X45586Y107685
X46856Y105780
X97656Y105780
X98926Y107685
X100196Y105780
X26536Y105780
X27806Y107685
T6
X57016Y65140
X59556Y79745
X121786Y67680
X28666Y38470
X133851Y115940
X116071Y115940
X124326Y64505
X97136Y64370
X100196Y118480
X106546Y118480
X122046Y50535
X86486Y50535
X82526Y52440
X118086Y52440
X21456Y65140
X43046Y88000
X41141Y67680
X24706Y46725
X60266Y46725
X12826Y50535
X113136Y60370
X48386Y50535
X145806Y34025
X110246Y34025
X8866Y52440
X44316Y52440
X129406Y89270
X133851Y88635
X88766Y116575
X20746Y48630
X56306Y48630
X60306Y61330
X53206Y65140
X40691Y43735
X114166Y55615
X114166Y42280
X118611Y117210
X98366Y46725
X133926Y46725
X122421Y114670
X94481Y114670
X98291Y89905
X93846Y90540
X137886Y37835
X102326Y37835
X64226Y38470
X117341Y91175
X123691Y91175
X141846Y35930
X106286Y35930
X129966Y48630
X94406Y48630
T7
X63366Y114670
X36061Y115305
X32251Y114035
X45586Y113400
X67176Y99430
X57651Y68950
X39871Y91175
X32251Y91175
X13836Y92445
X38601Y92445
X40200Y55800
M30